HIERARCHY
ROOT ui
{
	 OFFSET 0 0 0
	 CHANNELS 3 XPosition YPosition Z Position
	 EndSite
	 {
	 OFFSET 0 -1 0
	 }
}
ROOT li
{
	 OFFSET 0 0 0
	 CHANNELS 3 XPosition YPosition Z Position
	 EndSite
	 {
	 OFFSET 0 -1 0
	 }
}
ROOT ul
{
	 OFFSET 0 0 0
	 CHANNELS 3 XPosition YPosition Z Position
	 EndSite
	 {
	 OFFSET 0 -1 0
	 }
}
ROOT ll
{
	 OFFSET 0 0 0
	 CHANNELS 3 XPosition YPosition Z Position
	 EndSite
	 {
	 OFFSET 0 -1 0
	 }
}
ROOT tt
{
	 OFFSET 0 0 0
	 CHANNELS 3 XPosition YPosition Z Position
	 EndSite
	 {
	 OFFSET 0 -1 0
	 }
}
ROOT tb
{
	 OFFSET 0 0 0
	 CHANNELS 3 XPosition YPosition Z Position
	 EndSite
	 {
	 OFFSET 0 -1 0
	 }
}
ROOT td
{
	 OFFSET 0 0 0
	 CHANNELS 3 XPosition YPosition Z Position
	 EndSite
	 {
	 OFFSET 0 -1 0
	 }
}
ROOT v
{
	 OFFSET 0 0 0
	 CHANNELS 3 XPosition YPosition Z Position
	 EndSite
	 {
	 OFFSET 0 -1 0
	 }
}
ROOT bn
{
	 OFFSET 0 0 0
	 CHANNELS 3 XPosition YPosition Z Position
	 EndSite
	 {
	 OFFSET 0 -1 0
	 }
}
MOTION
Frames: 13
Frame Time: 0.002
-4.14777010679245E-4	7.540860176086426E-4	0		0.44060110473632813	-2.364644287109375	0		-1.00392333984375	0.22592198181152343	0		-0.6758573608398437	-2.5707158203125	0		1.7072283935546875	-0.5947858276367187	0		3.37721875	-0.546636962890625	0		4.51413623046875	-0.560923095703125	0		5.9594677734375	0.44296240234375	0		-0.017970314025878908	5.99781201171875	0		
2.671880125999451E-4	4.969300031661988E-4	0		0.4242626037597656	-2.367623291015625	0		-0.9941163940429687	0.23350830078125	0		-0.6351206665039062	-2.569623291015625	0		1.7119805908203125	-0.59108935546875	0		3.381147216796875	-0.5319077758789063	0		4.51482421875	-0.5611314697265625	0		5.95627392578125	0.4508328857421875	0		-0.0011623270511627198	6.0092958984375	0		
0.00406541109085083	0.004176787853240967	0		0.4481837463378906	-2.358260009765625	0		-0.9893211669921875	0.23715985107421875	0		-0.7140713500976562	-2.5516201171875	0		1.71272216796875	-0.5913397216796875	0		3.37747119140625	-0.5580700073242187	0		4.5155654296875	-0.5613473510742187	0		5.95701904296875	0.4516346130371094	0		-0.05075243377685547	5.99382958984375	0		
0.0017801179885864257	-5.738399922847748E-5	0		0.44696295166015626	-2.36050439453125	0		-0.9216989135742187	0.2267894744873047	0		-0.639347412109375	-2.558099609375	0		1.7135089111328126	-0.5915990600585938	0		3.392464111328125	-0.54553271484375	0		4.513255859375	-0.5675192260742188	0		5.961646484375	0.44237069702148435	0		-0.016964332580566406	5.999015625	0		
0.0025940959453582763	-3.492180109024048E-4	0		0.44781271362304687	-2.36078955078125	0		-1.0009261474609374	0.22476644897460937	0		-0.7124049682617187	-2.552215576171875	0		1.7143319091796876	-0.5918649291992187	0		3.373048583984375	-0.5604506225585938	0		4.5127578125	-0.5877239990234375	0		5.96245361328125	0.44216921997070313	0		-0.016241313934326172	5.9987236328125	0		
0.003434083938598633	-6.47803008556366E-4	0		0.42072726440429686	-2.358632568359375	0		-0.9200521240234375	0.22616981506347655	0		-0.6376124267578125	-2.558710205078125	0		1.721084716796875	-0.5982305908203125	0		3.373897705078125	-0.560693603515625	0		4.51056005859375	-0.5908997802734375	0		5.9594150390625	0.4500320129394531	0		6.737880110740662E-4	6.0091669921875	0		
0.004289970874786377	-9.508969783782959E-4	0		0.42570431518554686	-2.353992919921875	0		-0.9860477294921876	0.2359209747314453	0		-0.6936400756835938	-2.55411328125	0		1.6940667724609375	-0.5910562744140625	0		3.4063916015625	-0.584446044921875	0		4.51142626953125	-0.5911231689453125	0		5.9602626953125	0.4498342590332031	0		-0.030700481414794922	6.001376953125	0		
0.025163894653320314	-5.757870078086853E-4	0		0.4586524658203125	-2.351802001953125	0		-0.90921728515625	0.2333831787109375	0		-0.6276763916015625	-2.551470703125	0		1.7360767822265626	-0.5829862670898438	0		3.396839599609375	-0.5485167236328125	0		4.5242958984375	-0.5915361938476562	0		5.96911376953125	0.4495120849609375	0		-0.014001679420471192	5.9978154296875	0		
0.006001961231231689	-0.001560850977897644	0		0.40976300048828124	-2.3383017578125	0		-0.99840673828125	0.23149746704101562	0		-0.6756259765625	-2.5420068359375	0		1.68991357421875	-0.5845074462890625	0		3.376145751953125	-0.5834166259765625	0		4.524111328125	-0.5947376708984375	0		5.96995654296875	0.4493221130371094	0		-0.04635717391967773	5.9920380859375	0		
0.006827654838562011	-0.0018622889518737794	0		0.44747042846679685	-2.349183837890625	0		-0.9266583862304687	0.22604519653320312	0		-0.670416259765625	-2.521387939453125	0		1.690750732421875	-0.5847758178710938	0		3.390029052734375	-0.5808595581054687	0		4.5157265625	-0.6088052368164063	0		5.966646484375	0.441202392578125	0		-0.027746938705444337	5.98544921875	0		
-0.0453685302734375	-3.136950135231018E-4	0		0.42920498657226563	-2.355166748046875	0		-1.007791748046875	0.2320364532470703	0		-0.7108665771484375	-2.53904150390625	0		1.6974312744140625	-0.592132080078125	0		3.397677490234375	-0.5901978759765625	0		4.50629833984375	-0.6228500366210937	0		5.963546875	0.44908804321289064	0		-0.01189515209197998	5.99691357421875	0		
0.011391253471374511	0.0015094350576400756	0		0.4231466064453125	-2.34433349609375	0		-0.986095703125	0.2303974609375	0		-0.706033935546875	-2.53540478515625	0		1.680243896484375	-0.58709814453125	0		3.39563134765625	-0.5763698120117188	0		4.51420361328125	-0.6121585693359375	0		5.96425732421875	0.4489210815429687	0		-0.011294917106628418	5.9966279296875	0		
0.0191280574798584	0.007125768184661865	0		0.4190263366699219	-2.332519287109375	0		-0.99225048828125	0.24321560668945313	0		-0.7012786254882812	-2.531754638671875	0		1.6808978271484376	-0.5873370971679688	0		3.385984619140625	-0.595413818359375	0		4.5179052734375	-0.6093898315429688	0		5.964890625	0.448766357421875	0		-0.010770394325256347	5.99635546875	0		
